<svg width="865" height="316" viewBox="0 0 865 316" fill="none" xmlns="http://www.w3.org/2000/svg">
<path d="M316.849 166.286C316.846 166.291 316.847 166.297 316.851 166.301C328.942 177.923 349.3 165.393 357.361 176.029C359.286 178.561 353.697 187.764 350.43 187.874C315.679 189.123 317.233 191.268 296.759 172.82L278.844 223.299C277.485 227.124 270.224 232.73 266.652 232.755C263.081 232.789 255.289 225.967 254.613 222.278L235.55 141.54L220.378 197.5C219.61 201.477 213.269 208.383 209.749 209.902C205.637 211.667 195.717 205.968 194.113 201.628L177.21 166.117C171.241 174.635 164.622 187.815 157.075 187.806L117.858 186.848L112.995 160.431C104.814 141.646 85.7505 151.608 72.6052 147.843C50.6119 141.544 45.293 108.356 51.49 88.904C58.5143 66.8517 77.8735 51.1482 102.948 50.0844C121.995 49.2739 138.078 57.1594 149.788 69.5196C169.73 90.5588 164.589 131.43 151.857 123.291C149.814 121.983 145.964 116.064 146.2 113.32C148.176 90.3308 132.456 66.6828 106.114 67.2569C90.9343 67.5862 77.4851 75.6405 71.0349 86.9453C63.5462 100.074 65.4205 121.265 76.5311 130.543C104.975 127.175 130.691 139.223 133.705 170.081L151.857 171.005C162.529 163.626 159.894 150.025 174.424 146.918C179.498 145.837 190.356 152.507 192.39 157.826L205.848 182.86L220.378 132C221.526 126.149 230.788 117.706 235.921 118.095C241.054 118.483 249.759 127.492 250.898 133.368L268.873 203.932L279.587 169.055C281.309 163.44 291.103 155.048 296.59 155.048C303.553 155.048 310.044 159.731 316.846 166.271C316.85 166.274 316.851 166.281 316.849 166.286Z" fill="#E60F30"/>
<path d="M85.9784 250.759C90.0647 281.989 110.26 300.816 138.138 298.553C189.697 294.366 175.919 235.757 181.879 226.807C183.483 224.401 192.357 223.557 193.412 226.25C204.649 254.736 192.348 303.543 149.248 314.071C118.846 321.492 81.2336 305.662 74.2262 271.587C58.4805 195.037 10.3064 186.958 1.17141 121.172C-7.79475 56.6275 35.643 4.85679 99.5121 0.348379C200.538 -6.77727 230.205 97.6506 212.898 108.162C209.892 109.985 200.934 104.768 200.698 100.622C197.819 50.802 156.053 15.5621 106.081 17.352C76.9025 18.3989 50.2995 30.3284 34.6383 51.4352C16.9171 75.3281 12.5944 104.827 21.721 133.178C37.2893 181.563 80.3978 208.09 85.9869 250.751L85.9784 250.759Z" fill="#E60F30"/>
<path d="M398.988 134C398.988 155.8 442.988 165.4 442.988 202V204.8C442.988 223.2 435.588 240 411.188 240C387.788 240 378.988 223.2 378.988 204.8V198H399.988V204.8C399.988 215.4 403.788 220 410.988 220C418.188 220 421.988 215.4 421.988 204.8V202C421.988 179.8 376.988 168.8 376.988 134V131.2C376.988 112.8 385.788 96 410.188 96C434.588 96 441.988 112.8 441.988 131.2V138H420.988V131.2C420.988 120.6 417.188 116 409.988 116C402.788 116 398.988 120.6 398.988 131.2V134ZM453.012 169.2C453.012 147.8 464.212 136 484.612 136C505.012 136 516.212 147.8 516.212 169.2V206.8C516.212 228.2 505.012 240 484.612 240C464.212 240 453.012 228.2 453.012 206.8V169.2ZM495.012 167.2C495.012 159 491.612 154.8 484.612 154.8C477.612 154.8 474.212 159 474.212 167.2V208.8C474.212 217 477.612 221.2 484.612 221.2C491.612 221.2 495.012 217 495.012 208.8V167.2ZM528.254 138H547.454L549.254 148.2C553.054 140 559.254 136 567.454 136C582.654 136 590.254 146 590.254 165.8V238H569.054V168.2C569.054 159.2 566.054 154.8 559.854 154.8C552.454 154.8 549.454 161.8 549.454 170.8V238H528.254V138ZM641.23 163.8C641.23 157.8 638.43 154.8 632.63 154.8C626.23 154.8 623.03 159 623.03 167.2V171.8H603.03V169.2C603.03 147.8 613.03 136 634.23 136C651.43 136 662.43 147.2 662.43 163.8V209.4C662.43 219 663.03 227.6 664.43 238H645.63L643.63 226.6C639.63 235.8 632.43 240 623.03 240C610.23 240 600.23 231.8 600.23 213.2C600.23 180.4 641.23 179.4 641.23 163.8ZM641.23 204.8V188C631.23 194.8 621.43 201.8 621.43 212.8C621.43 217 623.23 221.8 629.83 221.8C635.63 221.8 641.23 217.4 641.23 204.8ZM717.32 156.4C715.12 155.4 711.52 154.8 707.92 154.8C699.92 154.8 696.72 160.2 696.72 171.2V238H675.52V138H692.32L694.32 149.8C696.72 140.6 702.92 136 709.72 136C712.72 136 715.12 136.6 717.32 137.6V156.4ZM727.477 238V138H748.677V238H727.477ZM737.877 123.8C730.277 123.8 724.077 117.6 724.077 109.8C724.077 102.2 730.277 96 737.877 96C745.677 96 751.877 102.2 751.877 109.8C751.877 117.6 745.677 123.8 737.877 123.8ZM778.829 163.8C778.829 180.2 818.029 185.6 818.029 210.8C818.029 228.2 806.229 240 787.829 240C769.429 240 759.029 228.2 759.029 206.8V204.2H779.029V208.8C779.029 217 782.429 221.2 788.629 221.2C795.229 221.2 797.829 217 797.829 211.8C797.829 195.8 758.629 190.4 758.629 163.8C758.629 147.8 770.429 136 787.629 136C806.629 136 816.629 147.8 816.629 169.2V171.8H796.629V167.2C796.629 159 793.629 154.8 788.229 154.8C782.229 154.8 778.829 157.8 778.829 163.8Z" fill="#E60F30"/>
</svg>
