<svg width="420" height="320" viewBox="0 0 420 320" fill="none" xmlns="http://www.w3.org/2000/svg">
  <defs>
    <linearGradient id="g1" x1="0" y1="0" x2="0" y2="1">
      <stop offset="0" stop-color="#2B2B2B"/>
      <stop offset="1" stop-color="#151515"/>
    </linearGradient>
    <linearGradient id="g2" x1="0" y1="0" x2="1" y2="1">
      <stop offset="0" stop-color="#EDEDED"/>
      <stop offset="1" stop-color="#BDBDBD"/>
    </linearGradient>
  </defs>

  <!-- Simple hearing-aid-ish placeholder to match the screenshot composition -->
  <ellipse cx="316" cy="92" rx="62" ry="52" fill="url(#g2)" stroke="#CFCFCF"/>
  <ellipse cx="316" cy="92" rx="36" ry="30" fill="#D8D8D8" stroke="#B9B9B9"/>

  <path d="M280 138 C250 170, 236 206, 240 250" stroke="#2A2A2A" stroke-width="10" stroke-linecap="round"/>
  <path d="M240 250 C244 282, 266 298, 292 290" stroke="#2A2A2A" stroke-width="10" stroke-linecap="round"/>

  <path d="M168 114 C142 128, 124 156, 124 192 C124 238, 153 272, 197 272" stroke="#EDEDED" stroke-width="20" stroke-linecap="round"/>

  <rect x="190" y="140" width="70" height="150" rx="26" fill="url(#g1)" stroke="#0F0F0F"/>
  <rect x="205" y="158" width="40" height="82" rx="14" fill="#1E1E1E"/>
  <circle cx="225" cy="258" r="9" fill="#2A2A2A"/>

  <path d="M260 200 C304 190, 324 178, 338 154" stroke="#2A2A2A" stroke-width="7" stroke-linecap="round"/>
</svg>
